<?xml version="1.0" encoding="utf-8"?>
<!-- Generator: Adobe Illustrator 26.5.0, SVG Export Plug-In . SVG Version: 6.00 Build 0)  -->
<svg version="1.1" xmlns="http://www.w3.org/2000/svg" xmlns:xlink="http://www.w3.org/1999/xlink" x="0px" y="0px"
	 viewBox="0 0 512 512" style="enable-background:new 0 0 512 512;" xml:space="preserve">
<style type="text/css">
	.st0{display:none;}
	.st1{display:inline;fill:#9E948C;}
	.st2{display:inline;fill:#FFFFFF;}
	.st3{display:inline;fill:none;stroke:#000000;stroke-width:34.8589;stroke-miterlimit:10;}
	.st4{display:inline;fill:none;stroke:#FFFFFF;stroke-width:20;stroke-miterlimit:10;}
	.st5{display:inline;fill:none;stroke:#FFFFFF;stroke-width:36.7794;stroke-miterlimit:10;}
	.st6{fill:#FFFFFF;}
	.st7{fill:none;stroke:#FFFFFF;stroke-width:20;stroke-miterlimit:10;}
</style>
<g id="back" class="st0">
	<rect class="st1" width="512" height="512"/>
</g>
<g id="guide" class="st0">
</g>
<g id="headphone" class="st0">
	<path class="st2" d="M130,255H43v150c0,17.67,14.33,32,32,32h55c17.67,0,32-14.33,32-32V287C162,269.33,147.67,255,130,255z"/>
	<path class="st2" d="M83,255H43c0-116.9,95.1-212,212-212v40C160.16,83,83,160.16,83,255z"/>
	<path class="st2" d="M380,255h87v150c0,17.67-14.33,32-32,32h-55c-17.67,0-32-14.33-32-32V287C348,269.33,362.33,255,380,255z"/>
	<path class="st2" d="M427,255h40c0-116.9-95.1-212-212-212v40C349.84,83,427,160.16,427,255z"/>
</g>
<g id="headset" class="st0">
	<path class="st2" d="M146.07,239.25H70.25v130.72c0,15.4,12.49,27.89,27.89,27.89h47.93c15.4,0,27.89-12.49,27.89-27.89V267.14
		C173.95,251.74,161.47,239.25,146.07,239.25z"/>
	<path class="st2" d="M105.11,239.25H70.25C70.25,137.38,153.13,54.5,255,54.5v34.86C172.35,89.36,105.11,156.6,105.11,239.25z"/>
	<path class="st2" d="M363.93,239.25h75.82v130.72c0,15.4-12.49,27.89-27.89,27.89h-47.93c-15.4,0-27.89-12.49-27.89-27.89V267.14
		C336.05,251.74,348.53,239.25,363.93,239.25z"/>
	<path class="st2" d="M404.89,239.25h34.86C439.75,137.38,356.87,54.5,255,54.5v34.86C337.65,89.36,404.89,156.6,404.89,239.25z"/>
	<path class="st3" d="M112.95,319.43"/>
	<path class="st4" d="M388,396.5v19c0,17.67-14.33,32-32,32h-90"/>
</g>
<g id="speaker" class="st0">
	<path class="st5" d="M321.7,83.56H189.3c-16.18,0-29.42,13.24-29.42,29.42v285.04c0,16.18,13.24,29.42,29.42,29.42H321.7
		c16.18,0,29.42-13.24,29.42-29.42V112.98C351.13,96.8,337.89,83.56,321.7,83.56z"/>
	<circle class="st5" cx="255.5" cy="316.5" r="53"/>
	<circle class="st5" cx="255.5" cy="168.5" r="15"/>
</g>
<g id="soundOn" class="st0">
	<path class="st2" d="M201.75,116.82l-90.22,108.8c-14.14,17.05-14.14,44.7,0,61.76l90.22,108.8c22.81,27.51,61.82,8.03,61.82-30.88
		V147.7C263.57,108.8,224.57,89.31,201.75,116.82z"/>
	<path class="st2" d="M209.85,180.94H97.75c-13.25,0-24,10.74-24,24v103.14c0,13.25,10.74,24,24,24h112.11V180.94z"/>
	<path class="st4" d="M307.76,312.12c34.11-34.11,34.11-89.41,0-123.52"/>
	<path class="st4" d="M345.7,350.06c55.07-55.07,55.07-144.34,0-199.41"/>
	<path class="st4" d="M382.89,387.25c75.6-75.6,75.6-198.18,0-273.79"/>
</g>
<g id="soundOff">
	<path class="st6" d="M201.75,116.82l-90.22,108.8c-14.14,17.05-14.14,44.7,0,61.76l90.22,108.8c22.81,27.51,61.82,8.03,61.82-30.88
		V147.7C263.57,108.8,224.57,89.31,201.75,116.82z"/>
	<path class="st6" d="M209.85,180.94H97.75c-13.25,0-24,10.74-24,24v103.14c0,13.25,10.74,24,24,24h112.11V180.94z"/>
	<line class="st7" x1="423.5" y1="319.5" x2="296.5" y2="192.5"/>
	<line class="st7" x1="296.5" y1="319.5" x2="423.5" y2="192.5"/>
</g>
</svg>
